<svg xmlns="http://www.w3.org/2000/svg" width="390" height="494" viewBox="0 0 390 494">
    <g id="Contact_art" data-name="Contact art" transform="translate(-765 -4073)">
        <path id="Polygon_25" data-name="Polygon 25" d="M55,0l55,110H0Z" transform="translate(975 4201)" fill="#3dd1b9"/>
        <path id="Polygon_26" data-name="Polygon 26" d="M55,0l55,110H0Z" transform="translate(1085 4439) rotate(180)" fill="#30343f"/>
        <path id="Polygon_28" data-name="Polygon 28" d="M55,0l55,110H0Z" transform="translate(1015 4311) rotate(180)" fill="#fff"/>
        <path id="Polygon_30" data-name="Polygon 30" d="M55,0l55,110H0Z" transform="translate(905 4329)" fill="#fff"/>
        <path id="Polygon_31" data-name="Polygon 31" d="M55,0l55,110H0Z" transform="translate(835 4201)" fill="#3dd1b9"/>
        <path id="Polygon_34" data-name="Polygon 34" d="M55,0l55,110H0Z" transform="translate(945 4439) rotate(180)" fill="#30343f"/>
        <path id="Polygon_35" data-name="Polygon 35" d="M55,0l55,110H0Z" transform="translate(875 4311) rotate(180)" fill="#fff"/>
        <path id="Polygon_36" data-name="Polygon 36" d="M55,0l55,110H0Z" transform="translate(765 4073)" fill="#3dd1b9"/>
        <path id="Polygon_37" data-name="Polygon 37" d="M55,0l55,110H0Z" transform="translate(1045 4329)" fill="#fff"/>
        <path id="Polygon_38" data-name="Polygon 38" d="M55,0l55,110H0Z" transform="translate(1155 4567) rotate(180)" fill="#30343f"/>
    </g>
</svg>
