<svg xmlns="http://www.w3.org/2000/svg" width="496" height="381" viewBox="0 0 496 381">
  <g id="Featured_Art" data-name="Featured Art" transform="translate(37 -1129)">
    <path id="Polygon_15" data-name="Polygon 15" d="M55,0l55,110H0Z" transform="translate(92 1307) rotate(-90)" fill="#fff" opacity="0.9"/>
    <path id="Polygon_16" data-name="Polygon 16" d="M55,0l55,110H0Z" transform="translate(92 1442) rotate(-90)" fill="#30343f" opacity="0.9"/>
    <path id="Polygon_17" data-name="Polygon 17" d="M55,0l55,110H0Z" transform="translate(220 1374) rotate(-90)" fill="#fff" opacity="0.9"/>
    <path id="Polygon_18" data-name="Polygon 18" d="M55,0l55,110H0Z" transform="translate(330 1332) rotate(90)" fill="#b842b8" opacity="0.9"/>
    <path id="Polygon_19" data-name="Polygon 19" d="M55,0l55,110H0Z" transform="translate(330 1197) rotate(90)" fill="#30343f" opacity="0.9"/>
    <path id="Polygon_20" data-name="Polygon 20" d="M55,0l55,110H0Z" transform="translate(202 1264) rotate(90)" fill="#b842b8" opacity="0.9"/>
    <path id="Polygon_21" data-name="Polygon 21" d="M55,0l55,110H0Z" transform="translate(202 1400) rotate(90)" fill="#fff" opacity="0.9"/>
    <path id="Polygon_22" data-name="Polygon 22" d="M55,0l55,110H0Z" transform="translate(220 1239) rotate(-90)" fill="#b842b8" opacity="0.9"/>
    <path id="Polygon_23" data-name="Polygon 23" d="M55,0l55,110H0Z" transform="translate(459 1129) rotate(90)" fill="#fff" opacity="0.9"/>
    <path id="Polygon_24" data-name="Polygon 24" d="M55,0l55,110H0Z" transform="translate(-37 1510) rotate(-90)" fill="#b842b8" opacity="0.9"/>
  </g>
</svg>
