<svg xmlns="http://www.w3.org/2000/svg" width="746" height="392" viewBox="0 0 746 392">
    <g id="Hero_Shape" data-name="Hero Shape" transform="translate(-1079.469 -212.56)">
        <path id="Polygon_1" data-name="Polygon 1" d="M55,0l55,110H0Z" transform="translate(1333.469 393.56) rotate(-90)" fill="#fff"/>
        <path id="Polygon_2" data-name="Polygon 2" d="M55,0l55,110H0Z" transform="translate(1333.469 533.56) rotate(-90)" fill="#3dd1b9"/>
        <path id="Polygon_3" data-name="Polygon 3" d="M55,0l55,110H0Z" transform="translate(1461.469 463.56) rotate(-90)" fill="#fff"/>
        <path id="Polygon_4" data-name="Polygon 4" d="M55,0l55,110H0Z" transform="translate(1571.469 423.56) rotate(90)" fill="#b842b8"/>
        <path id="Polygon_5" data-name="Polygon 5" d="M55,0l55,110H0Z" transform="translate(1571.469 283.56) rotate(90)" fill="#30343f"/>
        <path id="Polygon_6" data-name="Polygon 6" d="M55,0l55,110H0Z" transform="translate(1443.469 353.56) rotate(90)" fill="#b842b8"/>
        <path id="Polygon_7" data-name="Polygon 7" d="M55,0l55,110H0Z" transform="translate(1461.469 322.56) rotate(-90)" fill="#b842b8"/>
        <path id="Polygon_8" data-name="Polygon 8" d="M55,0l55,110H0Z" transform="translate(1698.469 212.56) rotate(90)" fill="#fff"/>
        <path id="Polygon_9" data-name="Polygon 9" d="M55,0l55,110H0Z" transform="translate(1443.469 494.56) rotate(90)" fill="#fff"/>
        <path id="Polygon_10" data-name="Polygon 10" d="M55,0l55,110H0Z" transform="translate(1206.469 604.56) rotate(-90)" fill="#b842b8"/>
        <path id="Polygon_11" data-name="Polygon 11" d="M55,0l55,110H0Z" transform="translate(1316.469 423.56) rotate(90)" fill="#fff"/>
        <path id="Polygon_12" data-name="Polygon 12" d="M55,0l55,110H0Z" transform="translate(1079.469 533.56) rotate(-90)" fill="#3dd1b9"/>
        <path id="Polygon_13" data-name="Polygon 13" d="M55,0l55,110H0Z" transform="translate(1588.469 393.56) rotate(-90)" fill="#30343f"/>
        <path id="Polygon_14" data-name="Polygon 14" d="M55,0l55,110H0Z" transform="translate(1825.469 283.56) rotate(90)" fill="#b842b8"/>
    </g>
</svg>
